<svg xmlns="http://www.w3.org/2000/svg" xmlns:xlink="http://www.w3.org/1999/xlink" id="组_40" data-name="组 40" width="139.47" height="40.143" viewBox="0 0 139.47 40.143">
  <defs>
	<clipPath id="clip-path">
	  <rect id="矩形_70" data-name="矩形 70" width="139.47" height="40.143" fill="none"/>
	</clipPath>
  </defs>
  <path id="路径_17" data-name="路径 17" d="M217.22,34.8V20.019h2.731v6.128h5.675V20.019h2.731V34.8h-2.731V28.658h-5.675V34.8Z" transform="translate(-164.069 -15.121)" fill="#fff"/>
  <path id="路径_18" data-name="路径 18" d="M23.257,0,0,39.848H12.87L18.564,30.1h2.928L15.8,39.848H46.513L39.054,27.067l-2.608,4.467,1.281,2.185H32.245l2.741-4.688,2.608-4.467v-.008L31.158,13.538,23.4,26.811H20.477L29.69,11.026Z" transform="translate(0)" fill="#fff"/>
  <g id="组_25" data-name="组 25">
	<g id="组_24" data-name="组 24" clip-path="url(#clip-path)">
	  <path id="路径_19" data-name="路径 19" d="M221.946,114.787h2.709a2.411,2.411,0,0,0,1.558-.464,1.586,1.586,0,0,0,.576-1.309V112.8a1.6,1.6,0,0,0-.565-1.309,2.4,2.4,0,0,0-1.568-.465h-2.709Zm0-6.207h2.688a2.35,2.35,0,0,0,1.5-.464,1.528,1.528,0,0,0,.586-1.267v-.211a1.532,1.532,0,0,0-.576-1.277,2.377,2.377,0,0,0-1.515-.454h-2.688Zm-4.694,8.655v-2.364h1.984V104.822h-1.984v-2.364h7.66a5.782,5.782,0,0,1,2.379.454,3.668,3.668,0,0,1,1.579,1.288,3.472,3.472,0,0,1,.565,2v.211a3.2,3.2,0,0,1-.384,1.657,2.98,2.98,0,0,1-.918.992,4.14,4.14,0,0,1-1,.5v.38a4.015,4.015,0,0,1,1.035.475,2.921,2.921,0,0,1,.96,1,3.281,3.281,0,0,1,.395,1.71v.211a3.737,3.737,0,0,1-.576,2.1,3.7,3.7,0,0,1-1.589,1.341,5.611,5.611,0,0,1-2.358.464Z" transform="translate(-164.094 -77.388)" fill="#fff"/>
	  <path id="路径_20" data-name="路径 20" d="M274.922,106.07h2.6v10.45h-2.6Zm1.3-1.267a1.693,1.693,0,0,1-1.195-.454,1.695,1.695,0,0,1,0-2.385,1.694,1.694,0,0,1,1.195-.454,1.676,1.676,0,0,1,1.216.454,1.75,1.75,0,0,1,0,2.385,1.675,1.675,0,0,1-1.216.454" transform="translate(-207.363 -76.672)" fill="#fff"/>
	  <path id="路径_21" data-name="路径 21" d="M300.537,127.7a2.9,2.9,0,0,0,2.112-.813,3.114,3.114,0,0,0,.832-2.333v-.211a3.11,3.11,0,0,0-.821-2.312,3.151,3.151,0,0,0-4.225,0,3.108,3.108,0,0,0-.821,2.312v.211a3.137,3.137,0,0,0,.821,2.333,2.863,2.863,0,0,0,2.1.813m0,2.28a6.158,6.158,0,0,1-2.827-.633,4.793,4.793,0,0,1-1.974-1.837,5.5,5.5,0,0,1-.725-2.892v-.338a5.457,5.457,0,0,1,.725-2.871,4.793,4.793,0,0,1,1.974-1.837,6.161,6.161,0,0,1,2.827-.633,6.229,6.229,0,0,1,2.838.633,4.712,4.712,0,0,1,1.973,1.837,5.523,5.523,0,0,1,.715,2.871v.338a5.564,5.564,0,0,1-.715,2.892,4.712,4.712,0,0,1-1.973,1.837,6.226,6.226,0,0,1-2.838.633" transform="translate(-222.826 -89.836)" fill="#fff"/>
	  <path id="路径_22" data-name="路径 22" d="M348.5,120.412a2.229,2.229,0,0,1-1.654-.633,2.262,2.262,0,0,1-.629-1.668v-6.038h-2.71v-2.111h2.71v-3.293H348.8v3.293h2.944v2.111H348.8v5.573q0,.633.6.633h2.07v2.132Z" transform="translate(-259.458 -80.569)" fill="#fff"/>
	  <path id="路径_23" data-name="路径 23" d="M385.355,123.287h5.12a2.182,2.182,0,0,0-.757-1.541,3.053,3.053,0,0,0-3.552,0,2.446,2.446,0,0,0-.811,1.541m2.667,6.692a5.671,5.671,0,0,1-2.784-.665,4.7,4.7,0,0,1-1.877-1.879,5.813,5.813,0,0,1-.672-2.86v-.253a5.846,5.846,0,0,1,.661-2.84,4.652,4.652,0,0,1,1.856-1.879,5.609,5.609,0,0,1,2.773-.665,5.222,5.222,0,0,1,2.688.675,4.664,4.664,0,0,1,1.792,1.89,5.908,5.908,0,0,1,.64,2.8v.908h-7.766a2.473,2.473,0,0,0,.832,1.826,2.8,2.8,0,0,0,1.942.707,2.5,2.5,0,0,0,1.707-.5,3.332,3.332,0,0,0,.832-1.108l2.133,1.1a6.749,6.749,0,0,1-.864,1.193,4.669,4.669,0,0,1-1.5,1.1,5.491,5.491,0,0,1-2.39.454" transform="translate(-289.05 -89.836)" fill="#fff"/>
	  <path id="路径_24" data-name="路径 24" d="M437.686,129.979a6.016,6.016,0,0,1-2.763-.633,4.791,4.791,0,0,1-1.973-1.837,5.541,5.541,0,0,1-.725-2.913v-.3a5.5,5.5,0,0,1,.725-2.892,4.791,4.791,0,0,1,1.973-1.837,6.019,6.019,0,0,1,2.763-.633,5.914,5.914,0,0,1,2.6.528,4.655,4.655,0,0,1,1.76,1.446,4.778,4.778,0,0,1,.864,2.059l-2.5.528a3.094,3.094,0,0,0-.395-1.161,2.143,2.143,0,0,0-.874-.823,2.994,2.994,0,0,0-1.4-.3,3.082,3.082,0,0,0-1.493.359,2.594,2.594,0,0,0-1.046,1.056,3.5,3.5,0,0,0-.384,1.71v.211a3.564,3.564,0,0,0,.384,1.721,2.575,2.575,0,0,0,1.046,1.066,3.077,3.077,0,0,0,1.493.359,2.6,2.6,0,0,0,1.91-.644,2.953,2.953,0,0,0,.821-1.657l2.5.57a5.486,5.486,0,0,1-.928,2.037,4.653,4.653,0,0,1-1.76,1.446,5.917,5.917,0,0,1-2.6.528" transform="translate(-326.465 -89.836)" fill="#fff"/>
	  <path id="路径_25" data-name="路径 25" d="M483.3,117.236V102.458h2.6v5.637h.363a3.08,3.08,0,0,1,.555-.686,2.717,2.717,0,0,1,.981-.57,4.751,4.751,0,0,1,1.579-.222,4.133,4.133,0,0,1,2.144.549,3.835,3.835,0,0,1,1.451,1.531,4.8,4.8,0,0,1,.523,2.291v6.249h-2.6V111.2a2.467,2.467,0,0,0-.608-1.826,2.338,2.338,0,0,0-1.717-.6,2.443,2.443,0,0,0-1.963.823,3.5,3.5,0,0,0-.7,2.343v5.3Z" transform="translate(-365.045 -77.388)" fill="#fff"/>
	  <path id="路径_26" data-name="路径 26" d="M276.019,45.184a2.9,2.9,0,0,0,2.112-.813,3.114,3.114,0,0,0,.832-2.333v-.211a3.11,3.11,0,0,0-.821-2.312,3.151,3.151,0,0,0-4.225,0,3.108,3.108,0,0,0-.821,2.312v.211a3.137,3.137,0,0,0,.821,2.333,2.863,2.863,0,0,0,2.1.813m0,2.28a6.158,6.158,0,0,1-2.827-.633,4.793,4.793,0,0,1-1.974-1.837,5.5,5.5,0,0,1-.725-2.892v-.338a5.458,5.458,0,0,1,.725-2.871,4.793,4.793,0,0,1,1.974-1.837,6.161,6.161,0,0,1,2.827-.633,6.23,6.23,0,0,1,2.838.633,4.712,4.712,0,0,1,1.973,1.837,5.523,5.523,0,0,1,.715,2.871V42.1a5.564,5.564,0,0,1-.715,2.892,4.712,4.712,0,0,1-1.973,1.837,6.227,6.227,0,0,1-2.838.633" transform="translate(-204.307 -27.511)" fill="#fff"/>
	  <path id="路径_27" data-name="路径 27" d="M323.953,47.559V37.109h2.56V38.5h.363a3.032,3.032,0,0,1,.992-1.056,3.757,3.757,0,0,1,2.165-.507,4.134,4.134,0,0,1,2.144.549,3.835,3.835,0,0,1,1.451,1.531,4.8,4.8,0,0,1,.523,2.291v6.249h-2.6V41.521a2.467,2.467,0,0,0-.608-1.826,2.338,2.338,0,0,0-1.717-.6,2.443,2.443,0,0,0-1.963.823,3.5,3.5,0,0,0-.7,2.343v5.3Z" transform="translate(-244.687 -27.901)" fill="#fff"/>
	  <path id="路径_28" data-name="路径 28" d="M379.2,44.973a2.994,2.994,0,0,0,2.134-.8,2.95,2.95,0,0,0,.853-2.259v-.19a2.963,2.963,0,0,0-.843-2.269,3.256,3.256,0,0,0-4.256,0,2.942,2.942,0,0,0-.853,2.269v.19a2.845,2.845,0,0,0,2.966,3.061m-5.569-3v-.317a5.647,5.647,0,0,1,.661-2.818,4.6,4.6,0,0,1,1.771-1.795,4.844,4.844,0,0,1,2.411-.623,3.959,3.959,0,0,1,2.229.517,3.639,3.639,0,0,1,1.1,1.087h.384V36.719h2.539V49.09a2.285,2.285,0,0,1-.619,1.668,2.248,2.248,0,0,1-1.685.633h-7.083V49.153h6.209q.6,0,.6-.633V45.67h-.384a3.211,3.211,0,0,1-.608.718,3.063,3.063,0,0,1-1.046.591,4.91,4.91,0,0,1-1.632.232,4.842,4.842,0,0,1-2.411-.623,4.6,4.6,0,0,1-1.771-1.795,5.647,5.647,0,0,1-.661-2.818" transform="translate(-282.207 -27.511)" fill="#fff"/>
	  <path id="路径_29" data-name="路径 29" d="M429.84,40.772h5.121a2.182,2.182,0,0,0-.757-1.541,3.053,3.053,0,0,0-3.552,0,2.448,2.448,0,0,0-.811,1.541m2.667,6.692a5.673,5.673,0,0,1-2.785-.665,4.7,4.7,0,0,1-1.877-1.879,5.811,5.811,0,0,1-.672-2.86v-.253a5.845,5.845,0,0,1,.661-2.84,4.654,4.654,0,0,1,1.856-1.879,5.611,5.611,0,0,1,2.774-.665,5.222,5.222,0,0,1,2.688.675,4.665,4.665,0,0,1,1.792,1.89,5.908,5.908,0,0,1,.64,2.8v.908h-7.766a2.473,2.473,0,0,0,.832,1.826,2.8,2.8,0,0,0,1.942.707,2.5,2.5,0,0,0,1.707-.5,3.334,3.334,0,0,0,.832-1.108l2.133,1.1a6.751,6.751,0,0,1-.864,1.193,4.666,4.666,0,0,1-1.5,1.1,5.491,5.491,0,0,1-2.389.454" transform="translate(-322.65 -27.511)" fill="#fff"/>
	  <path id="路径_30" data-name="路径 30" d="M477.773,47.559V37.109h2.56V38.5h.363a3.034,3.034,0,0,1,.992-1.056,3.757,3.757,0,0,1,2.165-.507,4.133,4.133,0,0,1,2.144.549,3.835,3.835,0,0,1,1.451,1.531,4.8,4.8,0,0,1,.523,2.291v6.249h-2.6V41.521a2.467,2.467,0,0,0-.608-1.826,2.338,2.338,0,0,0-1.717-.6,2.443,2.443,0,0,0-1.963.823,3.5,3.5,0,0,0-.7,2.343v5.3Z" transform="translate(-360.869 -27.901)" fill="#fff"/>
	  <path id="路径_31" data-name="路径 31" d="M530.115,40.772h5.121a2.182,2.182,0,0,0-.757-1.541,3.053,3.053,0,0,0-3.552,0,2.446,2.446,0,0,0-.811,1.541m2.667,6.692A5.672,5.672,0,0,1,530,46.8a4.7,4.7,0,0,1-1.877-1.879,5.813,5.813,0,0,1-.672-2.86v-.253a5.845,5.845,0,0,1,.661-2.84,4.652,4.652,0,0,1,1.856-1.879,5.609,5.609,0,0,1,2.773-.665,5.222,5.222,0,0,1,2.688.675,4.664,4.664,0,0,1,1.792,1.89,5.908,5.908,0,0,1,.64,2.8v.908h-7.766a2.472,2.472,0,0,0,.832,1.826,2.8,2.8,0,0,0,1.942.707,2.5,2.5,0,0,0,1.707-.5,3.331,3.331,0,0,0,.832-1.108l2.133,1.1a6.753,6.753,0,0,1-.864,1.193,4.666,4.666,0,0,1-1.5,1.1,5.491,5.491,0,0,1-2.39.454" transform="translate(-398.39 -27.511)" fill="#fff"/>
	</g>
  </g>
</svg>